<svg xmlns="http://www.w3.org/2000/svg" width="24.038" height="30.379" viewBox="0 0 24.038 30.379">
  <path id="bell" d="M76.976,24.176a4.72,4.72,0,0,1-1.434-1.953c-1.236-2.616-1.5-6.3-1.5-8.93,0-.011,0-.023,0-.034A8.619,8.619,0,0,0,68.972,5.44V3.384A3.385,3.385,0,0,0,65.593,0h-.28a3.385,3.385,0,0,0-3.379,3.384V5.44a8.62,8.62,0,0,0-5.074,7.852c0,2.63-.259,6.315-1.5,8.93a4.72,4.72,0,0,1-1.434,1.953.865.865,0,0,0-.475.984.905.905,0,0,0,.892.7h6.524a4.582,4.582,0,0,0,9.164,0h6.524a.906.906,0,0,0,.892-.7A.865.865,0,0,0,76.976,24.176ZM63.715,3.384a1.6,1.6,0,0,1,1.6-1.6h.28a1.6,1.6,0,0,1,1.6,1.6V4.863a8.62,8.62,0,0,0-3.477,0V3.384ZM65.453,28.6a2.808,2.808,0,0,1-2.8-2.74h5.6A2.808,2.808,0,0,1,65.453,28.6Zm3.584-4.524H56.376a9.328,9.328,0,0,0,.466-.819c1.193-2.352,1.8-5.7,1.8-9.961a6.813,6.813,0,1,1,13.625,0c0,.011,0,.022,0,.033,0,4.241.608,7.58,1.8,9.926a9.329,9.329,0,0,0,.466.819Z" transform="translate(-53.434 0)" fill="#333942"/>
</svg>
