<svg xmlns="http://www.w3.org/2000/svg" width="27.356" height="24.044" viewBox="0 0 27.356 24.044">
  <g id="shopping-cart" transform="translate(0 0)">
    <path id="Path_5067" data-name="Path 5067" d="M8.814,16.029H23.349a.8.8,0,0,0,.771-.581l3.206-11.22a.8.8,0,0,0-.771-1.022H6.965L6.392.628A.8.8,0,0,0,5.61,0H.8a.8.8,0,1,0,0,1.6H4.967L7.861,14.625a2.4,2.4,0,0,0,.955,4.61H23.349a.8.8,0,0,0,0-1.6H8.816a.8.8,0,0,1,0-1.6ZM25.492,4.809l-2.748,9.617H9.459L7.321,4.809Zm0,0" transform="translate(0)" fill="gray"/>
    <path id="Path_5068" data-name="Path 5068" d="M150,362.4a2.4,2.4,0,1,0,2.4-2.4A2.407,2.407,0,0,0,150,362.4Zm2.4-.8a.8.8,0,1,1-.8.8A.8.8,0,0,1,152.4,361.6Zm0,0" transform="translate(-141.986 -340.765)" fill="gray"/>
    <path id="Path_5069" data-name="Path 5069" d="M362,362.4a2.4,2.4,0,1,0,2.4-2.4A2.407,2.407,0,0,0,362,362.4Zm2.4-.8a.8.8,0,1,1-.8.8A.8.8,0,0,1,364.4,361.6Zm0,0" transform="translate(-342.658 -340.765)" fill="gray"/>
  </g>
</svg>
