<svg id="global" xmlns="http://www.w3.org/2000/svg" width="23.187" height="23.187" viewBox="0 0 23.187 23.187">
  <g id="Group_6201" data-name="Group 6201">
    <path id="Path_5064" data-name="Path 5064" d="M19.792,3.4a11.594,11.594,0,0,0-16.4,16.4,11.594,11.594,0,0,0,16.4-16.4ZM9.395,1.6a14.836,14.836,0,0,0-1.23,1.354A14.1,14.1,0,0,0,6.359,5.862H3.118A10.263,10.263,0,0,1,9.395,1.6ZM2.341,7.221H5.82a13.631,13.631,0,0,0-.686,3.694H1.382A10.159,10.159,0,0,1,2.341,7.221Zm-.959,5.052H5.134a13.629,13.629,0,0,0,.686,3.694H2.341A10.159,10.159,0,0,1,1.382,12.273Zm1.736,5.052H6.359a14.1,14.1,0,0,0,1.806,2.911,14.823,14.823,0,0,0,1.23,1.354A10.263,10.263,0,0,1,3.118,17.325Zm7.8,3.815a13.355,13.355,0,0,1-1.689-1.754,12.94,12.94,0,0,1-1.357-2.062h3.046Zm0-5.174H7.256a12.156,12.156,0,0,1-.762-3.694h4.42Zm0-5.052H6.494a12.155,12.155,0,0,1,.762-3.694h3.658Zm0-5.052H7.869A12.935,12.935,0,0,1,9.193,3.841a13.351,13.351,0,0,1,1.721-1.792Zm10.891,5.052H18.054a13.629,13.629,0,0,0-.686-3.694h3.479A10.158,10.158,0,0,1,21.805,10.914ZM20.069,5.862H16.828a14.1,14.1,0,0,0-1.806-2.911A14.823,14.823,0,0,0,13.792,1.6,10.262,10.262,0,0,1,20.069,5.862Zm-7.8-3.815A13.355,13.355,0,0,1,13.962,3.8a12.944,12.944,0,0,1,1.357,2.062H12.273Zm0,5.174h3.658a12.155,12.155,0,0,1,.762,3.694h-4.42Zm0,5.052h4.42a12.156,12.156,0,0,1-.762,3.694H12.273Zm0,8.866V17.325h3.046a12.933,12.933,0,0,1-1.324,2.021A13.351,13.351,0,0,1,12.273,21.139Zm1.519.451a14.836,14.836,0,0,0,1.23-1.354,14.1,14.1,0,0,0,1.806-2.911h3.241A10.263,10.263,0,0,1,13.792,21.59Zm7.054-5.624H17.367a13.631,13.631,0,0,0,.686-3.694h3.752A10.158,10.158,0,0,1,20.846,15.966Z" fill="#333942"/>
  </g>
</svg>
