<svg xmlns="http://www.w3.org/2000/svg" width="25.376" height="23.179" viewBox="0 0 25.376 23.179">
  <g id="passion" transform="translate(0 -22.164)">
    <g id="Group_6206" data-name="Group 6206" transform="translate(0 22.164)">
      <path id="Path_5070" data-name="Path 5070" d="M18.609,22.164a7.966,7.966,0,0,0-5.921,2.7,7.966,7.966,0,0,0-5.921-2.7C2.705,22.164,0,25.941,0,30.172c0,3.166,1.6,9.334,12.288,15.07a.846.846,0,0,0,.8,0c10.692-5.736,12.288-11.9,12.288-15.07C25.376,25.843,22.591,22.164,18.609,22.164ZM12.688,43.535c-5.136-2.824-11-7.528-11-13.362,0-3.245,1.949-6.317,5.075-6.317a6.4,6.4,0,0,1,5.2,2.824.846.846,0,0,0,1.438,0,6.482,6.482,0,0,1,5.2-2.822c3.15,0,5.075,3.1,5.075,6.317C23.684,36.006,17.824,40.711,12.688,43.535Z" transform="translate(0 -22.164)" fill="#333942"/>
    </g>
  </g>
</svg>
