<svg xmlns="http://www.w3.org/2000/svg" width="22.776" height="24.441" viewBox="0 0 22.776 24.441">
  <g id="user_1_" data-name="user (1)" transform="translate(-17.44)">
    <g id="Group_6203" data-name="Group 6203" transform="translate(17.44 13.767)">
      <g id="Group_6202" data-name="Group 6202">
        <path id="Path_5065" data-name="Path 5065" d="M28.828,288.389c-7.344,0-11.388,3.474-11.388,9.782a.892.892,0,0,0,.892.892H39.324a.892.892,0,0,0,.892-.892C40.216,291.863,36.172,288.389,28.828,288.389Zm-9.572,8.89c.351-4.717,3.567-7.106,9.572-7.106s9.221,2.39,9.572,7.106Z" transform="translate(-17.44 -288.389)" fill="#333942"/>
      </g>
    </g>
    <g id="Group_6205" data-name="Group 6205" transform="translate(22.911)">
      <g id="Group_6204" data-name="Group 6204">
        <path id="Path_5066" data-name="Path 5066" d="M137.966,0a5.846,5.846,0,0,0-5.917,6.036,5.937,5.937,0,1,0,11.834,0A5.846,5.846,0,0,0,137.966,0Zm0,10.674a4.413,4.413,0,0,1-4.133-4.638,4.056,4.056,0,0,1,4.133-4.252A4.1,4.1,0,0,1,142.1,6.036,4.413,4.413,0,0,1,137.966,10.674Z" transform="translate(-132.049)" fill="#333942"/>
      </g>
    </g>
  </g>
</svg>
